<svg xmlns="http://www.w3.org/2000/svg" viewBox="0 0 60 60"><style>.st0{stroke-linecap:round}.st0,.st1,.st2{fill:none;stroke:#000;stroke-width:2;stroke-miterlimit:10}.st1{stroke-linecap:square}.st2{stroke-linejoin:round}.st3{fill-rule:evenodd;clip-rule:evenodd}.st4,.st5,.st6{fill:none;stroke:#000;stroke-width:2;stroke-miterlimit:10}.st5,.st6{fill:#fff;stroke-linecap:square}.st6{fill:none;stroke-linejoin:round}</style><g id="_x30_1"><path class="st4" d="M14.4 50h27.1l4.1-5.6H25.9V10H14.7l2.9 3.8v30.7z"/><path d="M13.2 31.5c0-2.5.5-4.8 1.5-6.9V21c-2 3-3.2 6.6-3.2 10.5 0 3.9 1.2 7.5 3.2 10.5v-3.6c-1-2.1-1.5-4.4-1.5-6.9zM30 14.7c9.3 0 16.8 7.6 16.8 16.8 0 3.7-1.2 7.1-3.2 9.9h2.1c1.8-2.9 2.9-6.2 2.9-9.9 0-10.3-8.3-18.6-18.6-18.6h-1.1v1.8H30z"/></g></svg>